<?xml version="1.0" standalone="no"?><!DOCTYPE svg PUBLIC "-//W3C//DTD SVG 1.1//EN" "http://www.w3.org/Graphics/SVG/1.1/DTD/svg11.dtd"><svg t="1765007825250" class="icon" viewBox="0 0 1024 1024" version="1.1" xmlns="http://www.w3.org/2000/svg" p-id="5046" xmlns:xlink="http://www.w3.org/1999/xlink" width="200" height="200"><path d="M451.869 476.905c-26.227 26.196-26.227 68.924 0 95.225 12.744 12.649 29.608 19.621 47.59 19.621 17.983 0 34.849-6.972 47.582-19.663 12.67-12.712 19.703-29.64 19.703-47.591 0-17.931-7.033-34.901-19.703-47.55-25.32-25.425-69.676-25.487-95.172-0.042z m76.198 76.189c-15.278 15.258-41.956 15.258-57.214 0-15.728-15.78-15.759-41.435-0.052-57.215 7.64-7.598 17.837-11.814 28.606-11.814 10.824 0 20.99 4.216 28.66 11.877 7.639 7.577 11.856 17.722 11.856 28.556 0 10.811-4.218 20.955-11.856 28.596z" fill="#000000" p-id="5047"></path><path d="M940.61 186.994c-0.396-1.335-10.834-31.936-41.329-62.39-30.456-30.435-61.076-40.891-62.39-41.351-5.283-1.71-11.19 0-14.676 4.384l-11.793 14.737-1.565-1.587c-5.22-5.197-13.736-5.197-18.933 0-5.282 5.282-5.282 13.735 0 18.954l3.61 3.674-16.948 21.229-5.803-5.783c-5.282-5.198-13.734-5.198-18.976 0-5.237 5.281-5.237 13.777 0 18.994l7.89 7.891-13.671 17.075c-3.735 4.676-3.925 11.229-0.563 16.052-1.003 2.796-4.529 7.91-7.952 11.438L600.268 347.552c-63.79-42.812-129.039-42.31-176.933 5.594-11.073 11.021-20.791 30.475-31.112 51.057-8.892 17.784-18.034 36.152-26.018 44.147-8.444 8.453-34.692 13.756-62.402 19.454-50.597 10.27-113.488 23.044-156.624 66.211-94.682 94.785-85.09 200.488 28.586 314.124 61.817 61.889 121.86 93.262 178.384 93.262 47.174 0 92.856-21.729 135.793-64.666 43.103-43.104 55.908-106.037 66.241-156.593 5.635-27.761 10.999-53.936 19.391-62.39 8.036-7.974 26.384-17.137 44.105-26.03 20.602-10.27 40.076-20.018 51.14-31.079 48.071-48.156 48.655-113.156 5.595-177.029l137.159-137.18c3.507-3.486 8.642-7.014 11.438-8.015a13.414 13.414 0 0 0 16.071-0.606l17.033-13.63 7.952 7.953c2.61 2.567 6.034 3.924 9.479 3.924 3.442 0 6.887-1.357 9.496-3.924 5.218-5.261 5.218-13.756 0-18.975l-5.802-5.824 21.229-16.991 3.631 3.716c2.651 2.568 6.075 3.925 9.519 3.925s6.889-1.357 9.498-3.925c5.217-5.218 5.217-13.755 0.021-18.974l-1.587-1.586 14.714-11.835c4.407-3.506 6.159-9.392 4.345-14.673zM651.846 581.71c-8.016 7.953-26.384 17.116-44.126 25.968-20.582 10.311-40.035 20.06-51.12 31.144-14.172 14.109-19.703 41.412-26.739 75.957-9.559 47.07-21.488 105.558-58.935 143.005-38.218 38.197-76.417 56.774-116.776 56.774-49.135 0-102.771-28.722-159.431-85.371C90.821 725.278 81.71 637.463 166.163 552.989c37.447-37.385 95.934-49.345 143.004-58.926 34.514-7.077 61.848-12.607 76.021-26.76 11.021-11.042 20.77-30.496 31.038-51.098 8.893-17.784 18.107-36.131 26.072-44.105 19.84-19.83 42.603-29.912 67.608-29.912 35.38 0 75.686 20.77 113.384 58.509 31.478 31.435 97.355 112.152 28.556 181.013z m178.886-329.967c-5.72-1.168-13.296-0.376-22.774 5.344-7.2 4.3-12.71 9.769-13.338 10.333L660.133 401.948c-5.656-6.784-11.21-13.589-17.89-20.248-6.678-6.679-13.484-12.21-20.268-17.909l134.487-134.508c9.895-9.895 18.285-23.901 15.761-36.257l64.56-80.676c9.749 4.613 26.51 14.277 43.543 31.268 16.865 16.803 26.509 33.732 31.227 43.48l-80.821 64.645z" fill="#000000" p-id="5048"></path><path d="M270.865 638.821c-5.176-5.303-13.692-5.303-18.933 0l-38.072 38.072c-5.26 5.176-5.26 13.734 0 18.933l114.219 114.24c2.609 2.629 6.033 3.924 9.466 3.924s6.888-1.295 9.497-3.924l38.146-38.074a13.39 13.39 0 0 0 3.903-9.497 13.44 13.44 0 0 0-3.903-9.455L270.865 638.821z m66.68 142.815l-95.255-95.287 19.109-19.099 95.287 95.245-19.141 19.141zM136.189 318.245c0 22.252 18.077 40.245 40.245 40.245 22.219 0 40.253-17.993 40.253-40.245 0-5.614-1.2-10.979-3.308-15.884-0.166-0.542 0.208-1.001-0.042-1.524L167.52 191.961c8.089-2.066 19.162-3.36 28.952 0.417 9.373 3.591 16.333 11.314 21.25 23.546 2.755 6.889 10.541 10.249 17.429 7.473 6.888-2.755 10.196-10.562 7.462-17.451-7.764-19.35-20.132-32.354-36.695-38.741-29.432-11.146-61.012 4.217-62.265 4.863-6.335 3.195-9.143 10.751-6.366 17.201l37.478 89.046c-21.397 0.981-38.576 18.39-38.576 39.93z m40.245-13.42c7.441 0 13.432 6.053 13.432 13.42a13.4 13.4 0 0 1-13.432 13.422c-7.358 0-13.401-5.991-13.401-13.422-0.001-7.367 6.042-13.42 13.401-13.42zM337.472 270.446c21.542 0 38.824-17.032 39.879-38.324 0.052-0.25 0.323-0.417 0.375-0.667l11.021-120.44 82.91 10.332v57.924c-4.185-1.545-8.642-2.755-13.432-2.755-22.167 0-40.244 18.077-40.244 40.265 0 22.21 18.077 40.244 40.244 40.244 22.221 0 40.254-18.034 40.254-40.244V109.428c0-6.743-5.03-12.502-11.72-13.318L378.301 82.711c-3.506-0.46-7.285 0.542-10.041 2.879-2.859 2.296-4.634 5.595-4.967 9.207l-9.091 99.044c-5.155-2.379-10.697-3.924-16.73-3.924-22.188 0-40.254 18.097-40.254 40.286 0 22.209 18.065 40.243 40.254 40.243z m120.752-40.244c-7.357 0-13.4-6.011-13.4-13.422 0-7.389 6.043-13.421 13.4-13.421 7.442 0 13.432 6.033 13.432 13.421 0 7.411-5.99 13.422-13.432 13.422zM337.472 216.78c7.41 0 13.421 6.033 13.421 13.422 0 7.41-6.012 13.4-13.421 13.4-7.389 0-13.422-5.99-13.422-13.4 0-7.389 6.033-13.422 13.422-13.422z" fill="#000000" p-id="5049"></path></svg>